<svg id="visual" viewBox="0 0 960 300" width="960" height="300" xmlns="http://www.w3.org/2000/svg" xmlns:xlink="http://www.w3.org/1999/xlink" version="1.1"><path xmlns="http://www.w3.org/2000/svg" d="M0 221L22.8 213.7C45.7 206.3 91.3 191.7 137 185.7C182.7 179.7 228.3 182.3 274 188.2C319.7 194 365.3 203 411.2 201.7C457 200.3 503 188.7 548.8 184.2C594.7 179.7 640.3 182.3 686 184.7C731.7 187 777.3 189 823 192.3C868.7 195.7 914.3 200.3 937.2 202.7L960 205L960 301L937.2 301C914.3 301 868.7 301 823 301C777.3 301 731.7 301 686 301C640.3 301 594.7 301 548.8 301C503 301 457 301 411.2 301C365.3 301 319.7 301 274 301C228.3 301 182.7 301 137 301C91.3 301 45.7 301 22.8 301L0 301Z" fill="#a671f6"/></svg>