<svg id="visual" viewBox="0 0 960 300" width="960" height="300" xmlns="http://www.w3.org/2000/svg" xmlns:xlink="http://www.w3.org/1999/xlink" version="1.1"><path xmlns="http://www.w3.org/2000/svg" d="M0 196L22.8 197.3C45.7 198.7 91.3 201.3 137 204.7C182.7 208 228.3 212 274 217.8C319.7 223.7 365.3 231.3 411.2 232C457 232.7 503 226.3 548.8 224.7C594.7 223 640.3 226 686 226.5C731.7 227 777.3 225 823 222.8C868.7 220.7 914.3 218.3 937.2 217.2L960 216L960 301L937.2 301C914.3 301 868.7 301 823 301C777.3 301 731.7 301 686 301C640.3 301 594.7 301 548.8 301C503 301 457 301 411.2 301C365.3 301 319.7 301 274 301C228.3 301 182.7 301 137 301C91.3 301 45.7 301 22.8 301L0 301Z" fill="#7968d8"/></svg>