<svg id="visual" viewBox="0 0 960 300" width="960" height="300" xmlns="http://www.w3.org/2000/svg" xmlns:xlink="http://www.w3.org/1999/xlink" version="1.1"><path xmlns="http://www.w3.org/2000/svg" d="M0 241L22.8 238.5C45.7 236 91.3 231 137 230.5C182.7 230 228.3 234 274 232.8C319.7 231.7 365.3 225.3 411.2 226.7C457 228 503 237 548.8 242C594.7 247 640.3 248 686 244.3C731.7 240.7 777.3 232.3 823 231.5C868.7 230.7 914.3 237.3 937.2 240.7L960 244L960 301L937.2 301C914.3 301 868.7 301 823 301C777.3 301 731.7 301 686 301C640.3 301 594.7 301 548.8 301C503 301 457 301 411.2 301C365.3 301 319.7 301 274 301C228.3 301 182.7 301 137 301C91.3 301 45.7 301 22.8 301L0 301Z" fill="#535db7"/></svg>