<svg id="visual" viewBox="0 0 960 300" width="960" height="300" xmlns="http://www.w3.org/2000/svg" xmlns:xlink="http://www.w3.org/1999/xlink" version="1.1"><path xmlns="http://www.w3.org/2000/svg" d="M0 257L22.8 259.2C45.7 261.3 91.3 265.7 137 267C182.7 268.3 228.3 266.7 274 265.7C319.7 264.7 365.3 264.3 411.2 260.8C457 257.3 503 250.7 548.8 251.8C594.7 253 640.3 262 686 261.5C731.7 261 777.3 251 823 247.8C868.7 244.7 914.3 248.3 937.2 250.2L960 252L960 301L937.2 301C914.3 301 868.7 301 823 301C777.3 301 731.7 301 686 301C640.3 301 594.7 301 548.8 301C503 301 457 301 411.2 301C365.3 301 319.7 301 274 301C228.3 301 182.7 301 137 301C91.3 301 45.7 301 22.8 301L0 301Z" fill="#344f94"/></svg>