<svg id="visual" viewBox="0 0 960 300" width="960" height="300" xmlns="http://www.w3.org/2000/svg" xmlns:xlink="http://www.w3.org/1999/xlink" version="1.1"><path xmlns="http://www.w3.org/2000/svg" d="M0 268L22.8 267.2C45.7 266.3 91.3 264.7 137 267C182.7 269.3 228.3 275.7 274 277.7C319.7 279.7 365.3 277.3 411.2 275.3C457 273.3 503 271.7 548.8 270.8C594.7 270 640.3 270 686 271.8C731.7 273.7 777.3 277.3 823 276.5C868.7 275.7 914.3 270.3 937.2 267.7L960 265L960 301L937.2 301C914.3 301 868.7 301 823 301C777.3 301 731.7 301 686 301C640.3 301 594.7 301 548.8 301C503 301 457 301 411.2 301C365.3 301 319.7 301 274 301C228.3 301 182.7 301 137 301C91.3 301 45.7 301 22.8 301L0 301Z" fill="#204070"/></svg>