<svg id="visual" viewBox="0 0 960 540" width="960" height="540" xmlns="http://www.w3.org/2000/svg" xmlns:xlink="http://www.w3.org/1999/xlink" version="1.1"><rect x="0" y="0" width="960" height="540" fill="#001220"></rect><path d="M0 153L22.8 162.8C45.7 172.7 91.3 192.3 137 202.5C182.7 212.7 228.3 213.3 274 204.2C319.7 195 365.3 176 411.2 168C457 160 503 163 548.8 171.3C594.7 179.7 640.3 193.3 686 195.7C731.7 198 777.3 189 823 178C868.7 167 914.3 154 937.2 147.5L960 141L960 0L937.2 0C914.3 0 868.7 0 823 0C777.3 0 731.7 0 686 0C640.3 0 594.7 0 548.8 0C503 0 457 0 411.2 0C365.3 0 319.7 0 274 0C228.3 0 182.7 0 137 0C91.3 0 45.7 0 22.8 0L0 0Z" fill="#009473"></path><path d="M0 141L22.8 139.5C45.7 138 91.3 135 137 130.5C182.7 126 228.3 120 274 122.5C319.7 125 365.3 136 411.2 146.8C457 157.7 503 168.3 548.8 165.7C594.7 163 640.3 147 686 140.7C731.7 134.3 777.3 137.7 823 141.7C868.7 145.7 914.3 150.3 937.2 152.7L960 155L960 0L937.2 0C914.3 0 868.7 0 823 0C777.3 0 731.7 0 686 0C640.3 0 594.7 0 548.8 0C503 0 457 0 411.2 0C365.3 0 319.7 0 274 0C228.3 0 182.7 0 137 0C91.3 0 45.7 0 22.8 0L0 0Z" fill="#007b88"></path><path d="M0 131L22.8 129.3C45.7 127.7 91.3 124.3 137 123.2C182.7 122 228.3 123 274 123.3C319.7 123.7 365.3 123.3 411.2 119.5C457 115.7 503 108.3 548.8 106.2C594.7 104 640.3 107 686 110.3C731.7 113.7 777.3 117.3 823 112C868.7 106.7 914.3 92.3 937.2 85.2L960 78L960 0L937.2 0C914.3 0 868.7 0 823 0C777.3 0 731.7 0 686 0C640.3 0 594.7 0 548.8 0C503 0 457 0 411.2 0C365.3 0 319.7 0 274 0C228.3 0 182.7 0 137 0C91.3 0 45.7 0 22.8 0L0 0Z" fill="#005d81"></path><path d="M0 93L22.8 94.3C45.7 95.7 91.3 98.3 137 100.3C182.7 102.3 228.3 103.7 274 100.2C319.7 96.7 365.3 88.3 411.2 82C457 75.7 503 71.3 548.8 71.3C594.7 71.3 640.3 75.7 686 77.7C731.7 79.7 777.3 79.3 823 77.8C868.7 76.3 914.3 73.7 937.2 72.3L960 71L960 0L937.2 0C914.3 0 868.7 0 823 0C777.3 0 731.7 0 686 0C640.3 0 594.7 0 548.8 0C503 0 457 0 411.2 0C365.3 0 319.7 0 274 0C228.3 0 182.7 0 137 0C91.3 0 45.7 0 22.8 0L0 0Z" fill="#1f3f69"></path><path d="M0 66L22.8 64.2C45.7 62.3 91.3 58.7 137 53.3C182.7 48 228.3 41 274 41.2C319.7 41.3 365.3 48.7 411.2 48.3C457 48 503 40 548.8 40.3C594.7 40.7 640.3 49.3 686 50.2C731.7 51 777.3 44 823 41.7C868.7 39.3 914.3 41.7 937.2 42.8L960 44L960 0L937.2 0C914.3 0 868.7 0 823 0C777.3 0 731.7 0 686 0C640.3 0 594.7 0 548.8 0C503 0 457 0 411.2 0C365.3 0 319.7 0 274 0C228.3 0 182.7 0 137 0C91.3 0 45.7 0 22.8 0L0 0Z" fill="#2a2149"></path></svg>