<svg id="visual" viewBox="0 0 960 300" width="960" height="300" xmlns="http://www.w3.org/2000/svg" xmlns:xlink="http://www.w3.org/1999/xlink" version="1.1"><rect x="0" y="0" width="960" height="300" fill="#001220"></rect><path d="M0 107L14.5 115.5C29 124 58 141 87.2 142.3C116.3 143.7 145.7 129.3 174.8 130.7C204 132 233 149 262 152.2C291 155.3 320 144.7 349 141.8C378 139 407 144 436.2 150C465.3 156 494.7 163 523.8 153C553 143 582 116 611 107C640 98 669 107 698 121C727 135 756 154 785.2 150.3C814.3 146.7 843.7 120.3 872.8 118C902 115.7 931 137.3 945.5 148.2L960 159L960 0L945.5 0C931 0 902 0 872.8 0C843.7 0 814.3 0 785.2 0C756 0 727 0 698 0C669 0 640 0 611 0C582 0 553 0 523.8 0C494.7 0 465.3 0 436.2 0C407 0 378 0 349 0C320 0 291 0 262 0C233 0 204 0 174.8 0C145.7 0 116.3 0 87.2 0C58 0 29 0 14.5 0L0 0Z" fill="#a671f6"></path><path d="M0 144L14.5 131C29 118 58 92 87.2 92.5C116.3 93 145.7 120 174.8 125.3C204 130.7 233 114.3 262 114C291 113.7 320 129.3 349 130.5C378 131.7 407 118.3 436.2 112.5C465.3 106.7 494.7 108.3 523.8 103.8C553 99.3 582 88.7 611 89.5C640 90.3 669 102.7 698 100.3C727 98 756 81 785.2 81.8C814.3 82.7 843.7 101.3 872.8 107.3C902 113.3 931 106.7 945.5 103.3L960 100L960 0L945.5 0C931 0 902 0 872.8 0C843.7 0 814.3 0 785.2 0C756 0 727 0 698 0C669 0 640 0 611 0C582 0 553 0 523.8 0C494.7 0 465.3 0 436.2 0C407 0 378 0 349 0C320 0 291 0 262 0C233 0 204 0 174.8 0C145.7 0 116.3 0 87.2 0C58 0 29 0 14.5 0L0 0Z" fill="#6c65cd"></path><path d="M0 53L14.5 56.7C29 60.3 58 67.7 87.2 70C116.3 72.3 145.7 69.7 174.8 67.8C204 66 233 65 262 61.2C291 57.3 320 50.7 349 53.3C378 56 407 68 436.2 78.5C465.3 89 494.7 98 523.8 102.7C553 107.3 582 107.7 611 107.3C640 107 669 106 698 95.2C727 84.3 756 63.7 785.2 61.3C814.3 59 843.7 75 872.8 78C902 81 931 71 945.5 66L960 61L960 0L945.5 0C931 0 902 0 872.8 0C843.7 0 814.3 0 785.2 0C756 0 727 0 698 0C669 0 640 0 611 0C582 0 553 0 523.8 0C494.7 0 465.3 0 436.2 0C407 0 378 0 349 0C320 0 291 0 262 0C233 0 204 0 174.8 0C145.7 0 116.3 0 87.2 0C58 0 29 0 14.5 0L0 0Z" fill="#3e54a0"></path><path d="M0 39L14.5 36.3C29 33.7 58 28.3 87.2 30C116.3 31.7 145.7 40.3 174.8 41.2C204 42 233 35 262 30C291 25 320 22 349 21.8C378 21.7 407 24.3 436.2 26.7C465.3 29 494.7 31 523.8 32.3C553 33.7 582 34.3 611 37.7C640 41 669 47 698 43.5C727 40 756 27 785.2 28C814.3 29 843.7 44 872.8 44.7C902 45.3 931 31.7 945.5 24.8L960 18L960 0L945.5 0C931 0 902 0 872.8 0C843.7 0 814.3 0 785.2 0C756 0 727 0 698 0C669 0 640 0 611 0C582 0 553 0 523.8 0C494.7 0 465.3 0 436.2 0C407 0 378 0 349 0C320 0 291 0 262 0C233 0 204 0 174.8 0C145.7 0 116.3 0 87.2 0C58 0 29 0 14.5 0L0 0Z" fill="#204070"></path></svg>