<svg id="visual" viewBox="0 0 960 540" width="960" height="540" xmlns="http://www.w3.org/2000/svg" xmlns:xlink="http://www.w3.org/1999/xlink" version="1.1"><rect x="0" y="0" width="960" height="540" fill="#001122"></rect><path d="M0 345L22.8 352.3C45.7 359.7 91.3 374.3 137 375.8C182.7 377.3 228.3 365.7 274 364.3C319.7 363 365.3 372 411.2 372.3C457 372.7 503 364.3 548.8 364.2C594.7 364 640.3 372 686 369C731.7 366 777.3 352 823 346C868.7 340 914.3 342 937.2 343L960 344L960 541L937.2 541C914.3 541 868.7 541 823 541C777.3 541 731.7 541 686 541C640.3 541 594.7 541 548.8 541C503 541 457 541 411.2 541C365.3 541 319.7 541 274 541C228.3 541 182.7 541 137 541C91.3 541 45.7 541 22.8 541L0 541Z" fill="#2849ae"></path><path d="M0 386L22.8 382.3C45.7 378.7 91.3 371.3 137 368.8C182.7 366.3 228.3 368.7 274 371.5C319.7 374.3 365.3 377.7 411.2 377.8C457 378 503 375 548.8 372C594.7 369 640.3 366 686 364.5C731.7 363 777.3 363 823 364.8C868.7 366.7 914.3 370.3 937.2 372.2L960 374L960 541L937.2 541C914.3 541 868.7 541 823 541C777.3 541 731.7 541 686 541C640.3 541 594.7 541 548.8 541C503 541 457 541 411.2 541C365.3 541 319.7 541 274 541C228.3 541 182.7 541 137 541C91.3 541 45.7 541 22.8 541L0 541Z" fill="#313e93"></path><path d="M0 430L22.8 425.3C45.7 420.7 91.3 411.3 137 407.3C182.7 403.3 228.3 404.7 274 405.3C319.7 406 365.3 406 411.2 411.3C457 416.7 503 427.3 548.8 430C594.7 432.7 640.3 427.3 686 427.5C731.7 427.7 777.3 433.3 823 438C868.7 442.7 914.3 446.3 937.2 448.2L960 450L960 541L937.2 541C914.3 541 868.7 541 823 541C777.3 541 731.7 541 686 541C640.3 541 594.7 541 548.8 541C503 541 457 541 411.2 541C365.3 541 319.7 541 274 541C228.3 541 182.7 541 137 541C91.3 541 45.7 541 22.8 541L0 541Z" fill="#333379"></path><path d="M0 446L22.8 450.8C45.7 455.7 91.3 465.3 137 466.3C182.7 467.3 228.3 459.7 274 454.8C319.7 450 365.3 448 411.2 448.2C457 448.3 503 450.7 548.8 453.5C594.7 456.3 640.3 459.7 686 464C731.7 468.3 777.3 473.7 823 471.7C868.7 469.7 914.3 460.3 937.2 455.7L960 451L960 541L937.2 541C914.3 541 868.7 541 823 541C777.3 541 731.7 541 686 541C640.3 541 594.7 541 548.8 541C503 541 457 541 411.2 541C365.3 541 319.7 541 274 541C228.3 541 182.7 541 137 541C91.3 541 45.7 541 22.8 541L0 541Z" fill="#302a60"></path><path d="M0 494L22.8 492.7C45.7 491.3 91.3 488.7 137 488.3C182.7 488 228.3 490 274 488.8C319.7 487.7 365.3 483.3 411.2 483.8C457 484.3 503 489.7 548.8 491.2C594.7 492.7 640.3 490.3 686 489.8C731.7 489.3 777.3 490.7 823 493.2C868.7 495.7 914.3 499.3 937.2 501.2L960 503L960 541L937.2 541C914.3 541 868.7 541 823 541C777.3 541 731.7 541 686 541C640.3 541 594.7 541 548.8 541C503 541 457 541 411.2 541C365.3 541 319.7 541 274 541C228.3 541 182.7 541 137 541C91.3 541 45.7 541 22.8 541L0 541Z" fill="#2a2149"></path></svg>