<svg id="visual" viewBox="0 0 960 200" width="960" height="200" xmlns="http://www.w3.org/2000/svg" xmlns:xlink="http://www.w3.org/1999/xlink" version="1.1"><rect x="0" y="0" width="960" height="200" fill="#001220"></rect><path d="M0 147L22.8 142.2C45.7 137.3 91.3 127.7 137 123.7C182.7 119.7 228.3 121.3 274 125.2C319.7 129 365.3 135 411.2 134.2C457 133.3 503 125.7 548.8 122.7C594.7 119.7 640.3 121.3 686 122.8C731.7 124.3 777.3 125.7 823 127.8C868.7 130 914.3 133 937.2 134.5L960 136L960 201L937.2 201C914.3 201 868.7 201 823 201C777.3 201 731.7 201 686 201C640.3 201 594.7 201 548.8 201C503 201 457 201 411.2 201C365.3 201 319.7 201 274 201C228.3 201 182.7 201 137 201C91.3 201 45.7 201 22.8 201L0 201Z" fill="#a671f6"></path><path d="M0 130L22.8 131C45.7 132 91.3 134 137 136.2C182.7 138.3 228.3 140.7 274 144.5C319.7 148.3 365.3 153.7 411.2 154.2C457 154.7 503 150.3 548.8 149.2C594.7 148 640.3 150 686 150.3C731.7 150.7 777.3 149.3 823 148C868.7 146.7 914.3 145.3 937.2 144.7L960 144L960 201L937.2 201C914.3 201 868.7 201 823 201C777.3 201 731.7 201 686 201C640.3 201 594.7 201 548.8 201C503 201 457 201 411.2 201C365.3 201 319.7 201 274 201C228.3 201 182.7 201 137 201C91.3 201 45.7 201 22.8 201L0 201Z" fill="#7968d8"></path><path d="M0 160L22.8 158.3C45.7 156.7 91.3 153.3 137 153.2C182.7 153 228.3 156 274 155.3C319.7 154.7 365.3 150.3 411.2 151C457 151.7 503 157.3 548.8 160.7C594.7 164 640.3 165 686 162.7C731.7 160.3 777.3 154.7 823 154C868.7 153.3 914.3 157.7 937.2 159.8L960 162L960 201L937.2 201C914.3 201 868.7 201 823 201C777.3 201 731.7 201 686 201C640.3 201 594.7 201 548.8 201C503 201 457 201 411.2 201C365.3 201 319.7 201 274 201C228.3 201 182.7 201 137 201C91.3 201 45.7 201 22.8 201L0 201Z" fill="#535db7"></path><path d="M0 171L22.8 172.5C45.7 174 91.3 177 137 178C182.7 179 228.3 178 274 177.3C319.7 176.7 365.3 176.3 411.2 173.8C457 171.3 503 166.7 548.8 167.3C594.7 168 640.3 174 686 173.7C731.7 173.3 777.3 166.7 823 164.5C868.7 162.3 914.3 164.7 937.2 165.8L960 167L960 201L937.2 201C914.3 201 868.7 201 823 201C777.3 201 731.7 201 686 201C640.3 201 594.7 201 548.8 201C503 201 457 201 411.2 201C365.3 201 319.7 201 274 201C228.3 201 182.7 201 137 201C91.3 201 45.7 201 22.8 201L0 201Z" fill="#344f94"></path><path d="M0 179L22.8 178.3C45.7 177.7 91.3 176.3 137 177.8C182.7 179.3 228.3 183.7 274 185C319.7 186.3 365.3 184.7 411.2 183.3C457 182 503 181 548.8 180.5C594.7 180 640.3 180 686 181.2C731.7 182.3 777.3 184.7 823 184C868.7 183.3 914.3 179.7 937.2 177.8L960 176L960 201L937.2 201C914.3 201 868.7 201 823 201C777.3 201 731.7 201 686 201C640.3 201 594.7 201 548.8 201C503 201 457 201 411.2 201C365.3 201 319.7 201 274 201C228.3 201 182.7 201 137 201C91.3 201 45.7 201 22.8 201L0 201Z" fill="#204070"></path></svg>