<svg id="visual" viewBox="0 0 960 540" width="960" height="540" xmlns="http://www.w3.org/2000/svg" xmlns:xlink="http://www.w3.org/1999/xlink" version="1.1"><rect x="0" y="0" width="960" height="540" fill="#001122"></rect><path d="M0 342L22.8 345.2C45.7 348.3 91.3 354.7 137 352.5C182.7 350.3 228.3 339.7 274 338C319.7 336.3 365.3 343.7 411.2 353.8C457 364 503 377 548.8 382.5C594.7 388 640.3 386 686 377C731.7 368 777.3 352 823 350C868.7 348 914.3 360 937.2 366L960 372L960 541L937.2 541C914.3 541 868.7 541 823 541C777.3 541 731.7 541 686 541C640.3 541 594.7 541 548.8 541C503 541 457 541 411.2 541C365.3 541 319.7 541 274 541C228.3 541 182.7 541 137 541C91.3 541 45.7 541 22.8 541L0 541Z" fill="#2849ae"></path><path d="M0 373L22.8 376.5C45.7 380 91.3 387 137 390.3C182.7 393.7 228.3 393.3 274 389.2C319.7 385 365.3 377 411.2 379.8C457 382.7 503 396.3 548.8 397C594.7 397.7 640.3 385.3 686 379.5C731.7 373.7 777.3 374.3 823 382C868.7 389.7 914.3 404.3 937.2 411.7L960 419L960 541L937.2 541C914.3 541 868.7 541 823 541C777.3 541 731.7 541 686 541C640.3 541 594.7 541 548.8 541C503 541 457 541 411.2 541C365.3 541 319.7 541 274 541C228.3 541 182.7 541 137 541C91.3 541 45.7 541 22.8 541L0 541Z" fill="#313e93"></path><path d="M0 430L22.8 430.5C45.7 431 91.3 432 137 430C182.7 428 228.3 423 274 425.5C319.7 428 365.3 438 411.2 442C457 446 503 444 548.8 438.7C594.7 433.3 640.3 424.7 686 424.5C731.7 424.3 777.3 432.7 823 431.8C868.7 431 914.3 421 937.2 416L960 411L960 541L937.2 541C914.3 541 868.7 541 823 541C777.3 541 731.7 541 686 541C640.3 541 594.7 541 548.8 541C503 541 457 541 411.2 541C365.3 541 319.7 541 274 541C228.3 541 182.7 541 137 541C91.3 541 45.7 541 22.8 541L0 541Z" fill="#333379"></path><path d="M0 443L22.8 444.3C45.7 445.7 91.3 448.3 137 452.3C182.7 456.3 228.3 461.7 274 461C319.7 460.3 365.3 453.7 411.2 450.8C457 448 503 449 548.8 454.7C594.7 460.3 640.3 470.7 686 474.5C731.7 478.3 777.3 475.7 823 470.8C868.7 466 914.3 459 937.2 455.5L960 452L960 541L937.2 541C914.3 541 868.7 541 823 541C777.3 541 731.7 541 686 541C640.3 541 594.7 541 548.8 541C503 541 457 541 411.2 541C365.3 541 319.7 541 274 541C228.3 541 182.7 541 137 541C91.3 541 45.7 541 22.8 541L0 541Z" fill="#302a60"></path><path d="M0 509L22.8 506C45.7 503 91.3 497 137 492.3C182.7 487.7 228.3 484.3 274 483.3C319.7 482.3 365.3 483.7 411.2 487.2C457 490.7 503 496.3 548.8 498C594.7 499.7 640.3 497.3 686 495.2C731.7 493 777.3 491 823 488.7C868.7 486.3 914.3 483.7 937.2 482.3L960 481L960 541L937.2 541C914.3 541 868.7 541 823 541C777.3 541 731.7 541 686 541C640.3 541 594.7 541 548.8 541C503 541 457 541 411.2 541C365.3 541 319.7 541 274 541C228.3 541 182.7 541 137 541C91.3 541 45.7 541 22.8 541L0 541Z" fill="#2a2149"></path></svg>