<svg id="visual" viewBox="0 0 900 300" width="900" height="300" xmlns="http://www.w3.org/2000/svg" xmlns:xlink="http://www.w3.org/1999/xlink" version="1.1"><path d="M0 37L82 37L82 25L164 25L164 40L245 40L245 22L327 22L327 43L409 43L409 34L491 34L491 25L573 25L573 37L655 37L655 37L736 37L736 46L818 46L818 34L900 34L900 52L900 0L900 0L818 0L818 0L736 0L736 0L655 0L655 0L573 0L573 0L491 0L491 0L409 0L409 0L327 0L327 0L245 0L245 0L164 0L164 0L82 0L82 0L0 0Z" fill="#fa7268"></path><path d="M0 67L82 67L82 49L164 49L164 91L245 91L245 52L327 52L327 100L409 100L409 64L491 64L491 52L573 52L573 91L655 91L655 97L736 97L736 82L818 82L818 97L900 97L900 73L900 50L900 32L818 32L818 44L736 44L736 35L655 35L655 35L573 35L573 23L491 23L491 32L409 32L409 41L327 41L327 20L245 20L245 38L164 38L164 23L82 23L82 35L0 35Z" fill="#ea5e66"></path><path d="M0 178L82 178L82 112L164 112L164 172L245 172L245 211L327 211L327 199L409 199L409 184L491 184L491 178L573 178L573 184L655 184L655 175L736 175L736 163L818 163L818 199L900 199L900 154L900 71L900 95L818 95L818 80L736 80L736 95L655 95L655 89L573 89L573 50L491 50L491 62L409 62L409 98L327 98L327 50L245 50L245 89L164 89L164 47L82 47L82 65L0 65Z" fill="#d84a64"></path><path d="M0 250L82 250L82 193L164 193L164 223L245 223L245 247L327 247L327 244L409 244L409 220L491 220L491 214L573 214L573 253L655 253L655 220L736 220L736 208L818 208L818 247L900 247L900 205L900 152L900 197L818 197L818 161L736 161L736 173L655 173L655 182L573 182L573 176L491 176L491 182L409 182L409 197L327 197L327 209L245 209L245 170L164 170L164 110L82 110L82 176L0 176Z" fill="#c53762"></path><path d="M0 301L82 301L82 301L164 301L164 301L245 301L245 301L327 301L327 301L409 301L409 301L491 301L491 301L573 301L573 301L655 301L655 301L736 301L736 301L818 301L818 301L900 301L900 301L900 203L900 245L818 245L818 206L736 206L736 218L655 218L655 251L573 251L573 212L491 212L491 218L409 218L409 242L327 242L327 245L245 245L245 221L164 221L164 191L82 191L82 248L0 248Z" fill="#b0235f"></path></svg>