<svg id="visual" viewBox="0 0 900 450" width="900" height="450" xmlns="http://www.w3.org/2000/svg" xmlns:xlink="http://www.w3.org/1999/xlink" version="1.1"><path d="M0 91L82 91L82 181L164 181L164 69L245 69L245 69L327 69L327 168L409 168L409 195L491 195L491 109L573 109L573 226L655 226L655 118L736 118L736 100L818 100L818 168L900 168L900 96L900 0L900 0L818 0L818 0L736 0L736 0L655 0L655 0L573 0L573 0L491 0L491 0L409 0L409 0L327 0L327 0L245 0L245 0L164 0L164 0L82 0L82 0L0 0Z" fill="#fa7268"></path><path d="M0 154L82 154L82 244L164 244L164 100L245 100L245 114L327 114L327 213L409 213L409 271L491 271L491 150L573 150L573 267L655 267L655 195L736 195L736 136L818 136L818 222L900 222L900 141L900 94L900 166L818 166L818 98L736 98L736 116L655 116L655 224L573 224L573 107L491 107L491 193L409 193L409 166L327 166L327 67L245 67L245 67L164 67L164 179L82 179L82 89L0 89Z" fill="#ea5e66"></path><path d="M0 217L82 217L82 289L164 289L164 190L245 190L245 204L327 204L327 303L409 303L409 307L491 307L491 181L573 181L573 339L655 339L655 226L736 226L736 235L818 235L818 280L900 280L900 208L900 139L900 220L818 220L818 134L736 134L736 193L655 193L655 265L573 265L573 148L491 148L491 269L409 269L409 211L327 211L327 112L245 112L245 98L164 98L164 242L82 242L82 152L0 152Z" fill="#d84a64"></path><path d="M0 307L82 307L82 348L164 348L164 271L245 271L245 271L327 271L327 343L409 343L409 348L491 348L491 312L573 312L573 379L655 379L655 316L736 316L736 312L818 312L818 379L900 379L900 330L900 206L900 278L818 278L818 233L736 233L736 224L655 224L655 337L573 337L573 179L491 179L491 305L409 305L409 301L327 301L327 202L245 202L245 188L164 188L164 287L82 287L82 215L0 215Z" fill="#c53762"></path><path d="M0 451L82 451L82 451L164 451L164 451L245 451L245 451L327 451L327 451L409 451L409 451L491 451L491 451L573 451L573 451L655 451L655 451L736 451L736 451L818 451L818 451L900 451L900 451L900 328L900 377L818 377L818 310L736 310L736 314L655 314L655 377L573 377L573 310L491 310L491 346L409 346L409 341L327 341L327 269L245 269L245 269L164 269L164 346L82 346L82 305L0 305Z" fill="#b0235f"></path></svg>