<svg id="visual" viewBox="0 0 960 300" width="960" height="300" xmlns="http://www.w3.org/2000/svg" xmlns:xlink="http://www.w3.org/1999/xlink" version="1.1"><rect x="0" y="0" width="960" height="300" fill="#001220"></rect><path d="M0 221L22.8 213.7C45.7 206.3 91.3 191.7 137 185.7C182.7 179.7 228.3 182.3 274 188.2C319.7 194 365.3 203 411.2 201.7C457 200.3 503 188.7 548.8 184.2C594.7 179.7 640.3 182.3 686 184.7C731.7 187 777.3 189 823 192.3C868.7 195.7 914.3 200.3 937.2 202.7L960 205L960 301L937.2 301C914.3 301 868.7 301 823 301C777.3 301 731.7 301 686 301C640.3 301 594.7 301 548.8 301C503 301 457 301 411.2 301C365.3 301 319.7 301 274 301C228.3 301 182.7 301 137 301C91.3 301 45.7 301 22.8 301L0 301Z" fill="#a671f6"></path><path d="M0 196L22.8 197.3C45.7 198.7 91.3 201.3 137 204.7C182.7 208 228.3 212 274 217.8C319.7 223.7 365.3 231.3 411.2 232C457 232.7 503 226.3 548.8 224.7C594.7 223 640.3 226 686 226.5C731.7 227 777.3 225 823 222.8C868.7 220.7 914.3 218.3 937.2 217.2L960 216L960 301L937.2 301C914.3 301 868.7 301 823 301C777.3 301 731.7 301 686 301C640.3 301 594.7 301 548.8 301C503 301 457 301 411.2 301C365.3 301 319.7 301 274 301C228.3 301 182.7 301 137 301C91.3 301 45.7 301 22.8 301L0 301Z" fill="#7968d8"></path><path d="M0 241L22.8 238.5C45.7 236 91.3 231 137 230.5C182.7 230 228.3 234 274 232.8C319.7 231.7 365.3 225.3 411.2 226.7C457 228 503 237 548.8 242C594.7 247 640.3 248 686 244.3C731.7 240.7 777.3 232.3 823 231.5C868.7 230.7 914.3 237.3 937.2 240.7L960 244L960 301L937.2 301C914.3 301 868.7 301 823 301C777.3 301 731.7 301 686 301C640.3 301 594.7 301 548.8 301C503 301 457 301 411.2 301C365.3 301 319.7 301 274 301C228.3 301 182.7 301 137 301C91.3 301 45.7 301 22.8 301L0 301Z" fill="#535db7"></path><path d="M0 257L22.8 259.2C45.7 261.3 91.3 265.7 137 267C182.7 268.3 228.3 266.7 274 265.7C319.7 264.7 365.3 264.3 411.2 260.8C457 257.3 503 250.7 548.8 251.8C594.7 253 640.3 262 686 261.5C731.7 261 777.3 251 823 247.8C868.7 244.7 914.3 248.3 937.2 250.2L960 252L960 301L937.2 301C914.3 301 868.7 301 823 301C777.3 301 731.7 301 686 301C640.3 301 594.7 301 548.8 301C503 301 457 301 411.2 301C365.3 301 319.7 301 274 301C228.3 301 182.7 301 137 301C91.3 301 45.7 301 22.8 301L0 301Z" fill="#344f94"></path><path d="M0 268L22.8 267.2C45.7 266.3 91.3 264.7 137 267C182.7 269.3 228.3 275.7 274 277.7C319.7 279.7 365.3 277.3 411.2 275.3C457 273.3 503 271.7 548.8 270.8C594.7 270 640.3 270 686 271.8C731.7 273.7 777.3 277.3 823 276.5C868.7 275.7 914.3 270.3 937.2 267.7L960 265L960 301L937.2 301C914.3 301 868.7 301 823 301C777.3 301 731.7 301 686 301C640.3 301 594.7 301 548.8 301C503 301 457 301 411.2 301C365.3 301 319.7 301 274 301C228.3 301 182.7 301 137 301C91.3 301 45.7 301 22.8 301L0 301Z" fill="#204070"></path></svg>