<?xml version="1.0" encoding="UTF-8" standalone="no"?>
<!-- Created with Inkscape (http://www.inkscape.org/) -->

<svg
   width="508.00012mm"
   height="132.517mm"
   viewBox="0 0 508.00012 132.517"
   version="1.1"
   id="svg1"
   xml:space="preserve"
   inkscape:export-filename="bitmap.svg"
   inkscape:export-xdpi="96"
   inkscape:export-ydpi="96"
   xmlns:inkscape="http://www.inkscape.org/namespaces/inkscape"
   xmlns:sodipodi="http://sodipodi.sourceforge.net/DTD/sodipodi-0.dtd"
   xmlns="http://www.w3.org/2000/svg"
   xmlns:svg="http://www.w3.org/2000/svg"><sodipodi:namedview
     id="namedview1"
     pagecolor="#505050"
     bordercolor="#eeeeee"
     borderopacity="1"
     inkscape:showpageshadow="0"
     inkscape:pageopacity="0"
     inkscape:pagecheckerboard="0"
     inkscape:deskcolor="#505050"
     inkscape:document-units="mm" /><defs
     id="defs1" /><g
     inkscape:groupmode="layer"
     id="layer3"
     inkscape:label="Layer 2"
     transform="translate(148.99999,-163.25297)"><g
       id="surface1-3"
       transform="matrix(0.26458333,0,0,0.26458333,-148.99984,220.04641)"
       inkscape:export-filename="wavyfull2.svg"
       inkscape:export-xdpi="96"
       inkscape:export-ydpi="96"><path
         style="fill:#a670f5;fill-opacity:1;fill-rule:nonzero;stroke:none"
         d="m 0,192.60156 29,15.29688 c 29,15.30078 87,45.90234 145.39844,48.24218 58.20312,2.51954 117,-23.40234 175.20312,-20.8789 C 408,237.60156 466,268.19922 524,273.96094 c 58,5.57812 116,-13.5 174,-18.72266 58,-5.03906 116,3.96094 174.39844,14.76172 58.20312,10.80078 117,23.39844 175.20316,5.39844 C 1106,257.39844 1164,208.80078 1222,192.60156 c 58,-16.20312 116,0 174,25.19922 58,25.19922 116,59.39844 174.3984,52.73828 58.2032,-6.48047 117,-54 175.2032,-58.14062 C 1804,208.26172 1862,247.14062 1891,266.76172 l 29,19.4375 V 0 h -29 c -29,0 -87,0 -145.3984,0 -58.2032,0 -117,0 -175.2032,0 C 1512,0 1454,0 1396,0 1338,0 1280,0 1222,0 1164,0 1106,0 1047.6016,0 989.39844,0 930.60156,0 872.39844,0 814,0 756,0 698,0 640,0 582,0 524,0 466,0 408,0 349.60156,0 291.39844,0 232.60156,0 174.39844,0 116,0 58,0 29,0 H 0 Z m 0,0"
         id="path1-2" /><path
         style="fill:#6b63cc;fill-opacity:1;fill-rule:nonzero;stroke:none"
         d="M 0,259.19922 29,235.80078 C 58,212.39844 116,165.60156 174.39844,166.5 c 58.20312,0.89844 117,49.5 175.20312,59.03906 C 408,235.26172 466,205.73828 524,205.19922 c 58,-0.53906 116,27.53906 174,29.69922 58,2.16015 116,-21.95703 174.39844,-32.39844 58.20312,-10.44141 117,-7.55859 175.20316,-15.66016 C 1106,178.73828 1164,159.66016 1222,161.10156 c 58,1.4375 116,23.75781 174,19.4375 58,-4.14062 116,-34.73828 174.3984,-33.30078 58.2032,1.62109 117,35.10156 175.2032,45.90234 C 1804,203.94141 1862,192.05859 1891,185.94141 L 1920,180 V 0 h -29 c -29,0 -87,0 -145.3984,0 -58.2032,0 -117,0 -175.2032,0 C 1512,0 1454,0 1396,0 1338,0 1280,0 1222,0 1164,0 1106,0 1047.6016,0 989.39844,0 930.60156,0 872.39844,0 814,0 756,0 698,0 640,0 582,0 524,0 466,0 408,0 349.60156,0 291.39844,0 232.60156,0 174.39844,0 116,0 58,0 29,0 H 0 Z m 0,0"
         id="path2-1" /><path
         style="fill:#3d519e;fill-opacity:1;fill-rule:nonzero;stroke:none"
         d="m 0,95.398438 29,6.660152 c 29,6.48047 87,19.80079 145.39844,23.94141 58.20312,4.14062 117,-0.53906 175.20312,-3.96094 C 408,118.80078 466,117 524,110.16016 c 58,-7.01953 116,-18.898441 174,-14.218754 58,4.859374 116,26.457034 174.39844,45.359374 58.20312,18.89844 117,35.09766 175.20316,43.55859 58.3984,8.28125 116.3984,9 174.3984,8.28125 58,-0.53906 116,-2.33984 174,-21.78125 58,-19.62109 116,-56.69921 174.3984,-61.01953 58.2032,-4.14062 117,24.66016 175.2032,30.0586 C 1804,145.80078 1862,127.80078 1891,118.80078 l 29,-9 V 0 h -29 c -29,0 -87,0 -145.3984,0 -58.2032,0 -117,0 -175.2032,0 C 1512,0 1454,0 1396,0 1338,0 1280,0 1222,0 1164,0 1106,0 1047.6016,0 989.39844,0 930.60156,0 872.39844,0 814,0 756,0 698,0 640,0 582,0 524,0 466,0 408,0 349.60156,0 291.39844,0 232.60156,0 174.39844,0 116,0 58,0 29,0 H 0 Z m 0,0"
         id="path3-7" /><path
         style="fill:#1e3f6e;fill-opacity:1;fill-rule:nonzero;stroke:none;stroke-width:1"
         d="m 0,69.495714 29,-5.191401 c 29,-4.999437 87,-15.382239 145.39844,-12.11466 58.20312,3.267578 117,19.805778 175.20312,21.537637 C 408,75.267182 466,61.804595 524,52.189653 582,42.574711 640,36.807414 698,36.419311 c 58,-0.191964 116,4.807471 174.39844,9.422978 58.20312,4.423541 117,8.271186 175.20316,10.770905 C 1106,59.304876 1164,60.456666 1222,66.995996 c 58,6.347364 116,17.886128 174,11.154835 58,-6.731294 116,-31.728475 174.3984,-29.808824 58.2032,1.923823 117,30.768649 175.2032,32.116577 C 1804,81.610373 1862,55.457231 1891,42.190781 l 29,-13.078658 V -5.5 h -29 c -29,0 -87,0 -145.3984,0 -58.2032,0 -117,0 -175.2032,0 C 1512,-5.5 1454,-5.5 1396,-5.5 c -58,0 -116,0 -174,0 -58,0 -116,0 -174.3984,0 -58.20316,0 -117.00004,0 -175.20316,0 C 814,-5.5 756,-5.5 698,-5.5 c -58,0 -116,0 -174,0 -58,0 -116,0 -174.39844,0 -58.20312,0 -117,0 -175.20312,0 C 116,-5.5 58,-5.5 29,-5.5 H 0 Z m 0,0"
         id="path4-6" /></g></g><g
     inkscape:label="Layer 1"
     inkscape:groupmode="layer"
     id="layer1"
     transform="translate(148.99999,-163.25297)"><g
       id="g1"><g
         id="surface1"
         transform="matrix(0.26458333,0,0,0.26458333,-149,76.698837)"><path
           style="fill:#a670f5;fill-opacity:1;fill-rule:nonzero;stroke:none"
           d="M 0,397.80078 45.601562,384.66016 C 91.398438,371.33984 182.60156,345.05859 274,334.26172 c 91.39844,-10.80078 182.60156,-6.1211 274,4.5 91.39844,10.4375 182.60156,26.63672 274.39844,24.29687 C 914,360.53906 1006,339.66016 1097.6016,331.55859 c 91.7968,-8.09765 183,-3.41797 274.3984,0.90235 91.3984,4.14062 182.6016,7.73828 274,13.67968 91.3984,6.1211 182.6016,14.39844 228.3984,18.71875 L 1920,369 v 172.80078 h -45.6016 c -45.7968,0 -137,0 -228.3984,0 -91.3984,0 -182.6016,0 -274,0 -91.3984,0 -182.6016,0 -274.3984,0 -91.6016,0 -183.6016,0 -275.20316,0 -91.79688,0 -183,0 -274.39844,0 -91.39844,0 -182.60156,0 -274,0 -91.39844,0 -182.601562,0 -228.398438,0 H 0 Z m 0,0"
           id="path1" /><path
           style="fill:#7866d7;fill-opacity:1;fill-rule:nonzero;stroke:none"
           d="m 0,352.80078 45.601562,2.33984 C 91.398438,357.66016 182.60156,362.33984 274,368.46094 c 91.39844,5.9375 182.60156,13.14062 274,23.57812 91.39844,10.6211 182.60156,24.30078 274.39844,25.5625 C 914,418.85937 1006,407.33984 1097.6016,404.46094 c 91.7968,-3.0625 183,2.33984 274.3984,3.23828 91.3984,0.90234 182.6016,-2.69922 274,-6.66016 91.3984,-3.77734 182.6016,-8.09765 228.3984,-10.07812 L 1920,388.80078 v 153 h -45.6016 c -45.7968,0 -137,0 -228.3984,0 -91.3984,0 -182.6016,0 -274,0 -91.3984,0 -182.6016,0 -274.3984,0 -91.6016,0 -183.6016,0 -275.20316,0 -91.79688,0 -183,0 -274.39844,0 -91.39844,0 -182.60156,0 -274,0 -91.39844,0 -182.601562,0 -228.398438,0 H 0 Z m 0,0"
           id="path2" /><path
           style="fill:#515cb5;fill-opacity:1;fill-rule:nonzero;stroke:none"
           d="m 0,433.80078 45.601562,-4.5 c 45.796876,-4.5 136.999998,-13.5 228.398438,-14.40234 91.39844,-0.89844 182.60156,6.30078 274,4.14062 91.39844,-1.98047 182.60156,-13.5 274.39844,-10.98047 C 914,410.39844 1006,426.60156 1097.6016,435.60156 c 91.7968,9 183,10.79688 274.3984,4.13672 91.3984,-6.47656 182.6016,-21.59766 274,-23.03906 91.3984,-1.4375 182.6016,10.4414 228.3984,16.5625 l 45.6016,5.9375 v 102.60156 h -45.6016 c -45.7968,0 -137,0 -228.3984,0 -91.3984,0 -182.6016,0 -274,0 -91.3984,0 -182.6016,0 -274.3984,0 -91.6016,0 -183.6016,0 -275.20316,0 -91.79688,0 -183,0 -274.39844,0 -91.39844,0 -182.60156,0 -274,0 -91.39844,0 -182.601562,0 -228.398438,0 H 0 Z m 0,0"
           id="path3" /><path
           style="fill:#334c94;fill-opacity:1;fill-rule:nonzero;stroke:none"
           d="m 0,462.60156 45.601562,3.95703 C 91.398438,470.33984 182.60156,478.26172 274,480.60156 c 91.39844,2.33985 182.60156,-0.54297 274,-2.33984 91.39844,-1.80078 182.60156,-2.52344 274.39844,-8.82031 C 914,463.14062 1006,451.26172 1097.6016,453.23828 c 91.7968,2.16016 183,18.36328 274.3984,17.46094 91.3984,-0.89844 182.6016,-18.89844 274,-24.66016 91.3984,-5.57812 182.6016,0.90235 228.3984,4.32031 L 1920,453.60156 v 88.19922 h -45.6016 c -45.7968,0 -137,0 -228.3984,0 -91.3984,0 -182.6016,0 -274,0 -91.3984,0 -182.6016,0 -274.3984,0 -91.6016,0 -183.6016,0 -275.20316,0 -91.79688,0 -183,0 -274.39844,0 -91.39844,0 -182.60156,0 -274,0 -91.39844,0 -182.601562,0 -228.398438,0 H 0 Z m 0,0"
           id="path4" /><path
           style="fill:#1e3f6e;fill-opacity:1;fill-rule:nonzero;stroke:none;stroke-width:1"
           d="m 0,482.815 45.601562,-1.54842 C 91.398438,479.5204 182.60156,476.41936 274,480.87947 c 91.39844,4.45591 182.60156,16.86849 274,20.74374 91.39844,3.87946 182.60156,-0.77421 274.39844,-4.65367 C 914,493.0943 1006,489.98904 1097.6016,488.24708 c 91.7968,-1.55263 183,-1.55263 274.3984,1.93552 91.3984,3.68591 182.6016,10.6664 274,9.11378 91.3984,-1.54842 182.6016,-12.02127 228.3984,-17.06205 L 1920,477.00002 v 69.80078 h -45.6016 c -45.7968,0 -137,0 -228.3984,0 -91.3984,0 -182.6016,0 -274,0 -91.3984,0 -182.6016,0 -274.3984,0 -91.6016,0 -183.6016,0 -275.20316,0 -91.79688,0 -183,0 -274.39844,0 -91.39844,0 -182.60156,0 -274,0 -91.39844,0 -182.601562,0 -228.398438,0 H 0 Z m 0,0"
           id="path5" /></g></g></g></svg>
