<?xml version="1.0" encoding="UTF-8"?>
<svg xmlns="http://www.w3.org/2000/svg" xmlns:xlink="http://www.w3.org/1999/xlink" width="1920px" height="540px" viewBox="0 0 1920 540" version="1.1">
<g id="surface1">
<rect x="0" y="0" width="1920" height="540" style="fill:rgb(0%,7.058824%,12.54902%);fill-opacity:1;stroke:none;"/>
<path style=" stroke:none;fill-rule:nonzero;fill:rgb(65.098039%,44.313725%,96.470588%);fill-opacity:1;" d="M 0 397.800781 L 45.601562 384.660156 C 91.398438 371.339844 182.601562 345.058594 274 334.261719 C 365.398438 323.460938 456.601562 328.140625 548 338.761719 C 639.398438 349.199219 730.601562 365.398438 822.398438 363.058594 C 914 360.539062 1006 339.660156 1097.601562 331.558594 C 1189.398438 323.460938 1280.601562 328.140625 1372 332.460938 C 1463.398438 336.601562 1554.601562 340.199219 1646 346.140625 C 1737.398438 352.261719 1828.601562 360.539062 1874.398438 364.859375 L 1920 369 L 1920 541.800781 L 1874.398438 541.800781 C 1828.601562 541.800781 1737.398438 541.800781 1646 541.800781 C 1554.601562 541.800781 1463.398438 541.800781 1372 541.800781 C 1280.601562 541.800781 1189.398438 541.800781 1097.601562 541.800781 C 1006 541.800781 914 541.800781 822.398438 541.800781 C 730.601562 541.800781 639.398438 541.800781 548 541.800781 C 456.601562 541.800781 365.398438 541.800781 274 541.800781 C 182.601562 541.800781 91.398438 541.800781 45.601562 541.800781 L 0 541.800781 Z M 0 397.800781 "/>
<path style=" stroke:none;fill-rule:nonzero;fill:rgb(47.45098%,40.784314%,84.705882%);fill-opacity:1;" d="M 0 352.800781 L 45.601562 355.140625 C 91.398438 357.660156 182.601562 362.339844 274 368.460938 C 365.398438 374.398438 456.601562 381.601562 548 392.039062 C 639.398438 402.660156 730.601562 416.339844 822.398438 417.601562 C 914 418.859375 1006 407.339844 1097.601562 404.460938 C 1189.398438 401.398438 1280.601562 406.800781 1372 407.699219 C 1463.398438 408.601562 1554.601562 405 1646 401.039062 C 1737.398438 397.261719 1828.601562 392.941406 1874.398438 390.960938 L 1920 388.800781 L 1920 541.800781 L 1874.398438 541.800781 C 1828.601562 541.800781 1737.398438 541.800781 1646 541.800781 C 1554.601562 541.800781 1463.398438 541.800781 1372 541.800781 C 1280.601562 541.800781 1189.398438 541.800781 1097.601562 541.800781 C 1006 541.800781 914 541.800781 822.398438 541.800781 C 730.601562 541.800781 639.398438 541.800781 548 541.800781 C 456.601562 541.800781 365.398438 541.800781 274 541.800781 C 182.601562 541.800781 91.398438 541.800781 45.601562 541.800781 L 0 541.800781 Z M 0 352.800781 "/>
<path style=" stroke:none;fill-rule:nonzero;fill:rgb(32.54902%,36.470588%,71.764706%);fill-opacity:1;" d="M 0 433.800781 L 45.601562 429.300781 C 91.398438 424.800781 182.601562 415.800781 274 414.898438 C 365.398438 414 456.601562 421.199219 548 419.039062 C 639.398438 417.058594 730.601562 405.539062 822.398438 408.058594 C 914 410.398438 1006 426.601562 1097.601562 435.601562 C 1189.398438 444.601562 1280.601562 446.398438 1372 439.738281 C 1463.398438 433.261719 1554.601562 418.140625 1646 416.699219 C 1737.398438 415.261719 1828.601562 427.140625 1874.398438 433.261719 L 1920 439.199219 L 1920 541.800781 L 1874.398438 541.800781 C 1828.601562 541.800781 1737.398438 541.800781 1646 541.800781 C 1554.601562 541.800781 1463.398438 541.800781 1372 541.800781 C 1280.601562 541.800781 1189.398438 541.800781 1097.601562 541.800781 C 1006 541.800781 914 541.800781 822.398438 541.800781 C 730.601562 541.800781 639.398438 541.800781 548 541.800781 C 456.601562 541.800781 365.398438 541.800781 274 541.800781 C 182.601562 541.800781 91.398438 541.800781 45.601562 541.800781 L 0 541.800781 Z M 0 433.800781 "/>
<path style=" stroke:none;fill-rule:nonzero;fill:rgb(20.392157%,30.980392%,58.039216%);fill-opacity:1;" d="M 0 462.601562 L 45.601562 466.558594 C 91.398438 470.339844 182.601562 478.261719 274 480.601562 C 365.398438 482.941406 456.601562 480.058594 548 478.261719 C 639.398438 476.460938 730.601562 475.738281 822.398438 469.441406 C 914 463.140625 1006 451.261719 1097.601562 453.238281 C 1189.398438 455.398438 1280.601562 471.601562 1372 470.699219 C 1463.398438 469.800781 1554.601562 451.800781 1646 446.039062 C 1737.398438 440.460938 1828.601562 446.941406 1874.398438 450.359375 L 1920 453.601562 L 1920 541.800781 L 1874.398438 541.800781 C 1828.601562 541.800781 1737.398438 541.800781 1646 541.800781 C 1554.601562 541.800781 1463.398438 541.800781 1372 541.800781 C 1280.601562 541.800781 1189.398438 541.800781 1097.601562 541.800781 C 1006 541.800781 914 541.800781 822.398438 541.800781 C 730.601562 541.800781 639.398438 541.800781 548 541.800781 C 456.601562 541.800781 365.398438 541.800781 274 541.800781 C 182.601562 541.800781 91.398438 541.800781 45.601562 541.800781 L 0 541.800781 Z M 0 462.601562 "/>
<path style=" stroke:none;fill-rule:nonzero;fill:rgb(12.54902%,25.098039%,43.921569%);fill-opacity:1;" d="M 0 482.398438 L 45.601562 480.960938 C 91.398438 479.339844 182.601562 476.460938 274 480.601562 C 365.398438 484.738281 456.601562 496.261719 548 499.859375 C 639.398438 503.460938 730.601562 499.140625 822.398438 495.539062 C 914 491.941406 1006 489.058594 1097.601562 487.441406 C 1189.398438 486 1280.601562 486 1372 489.238281 C 1463.398438 492.660156 1554.601562 499.140625 1646 497.699219 C 1737.398438 496.261719 1828.601562 486.539062 1874.398438 481.859375 L 1920 477 L 1920 541.800781 L 1874.398438 541.800781 C 1828.601562 541.800781 1737.398438 541.800781 1646 541.800781 C 1554.601562 541.800781 1463.398438 541.800781 1372 541.800781 C 1280.601562 541.800781 1189.398438 541.800781 1097.601562 541.800781 C 1006 541.800781 914 541.800781 822.398438 541.800781 C 730.601562 541.800781 639.398438 541.800781 548 541.800781 C 456.601562 541.800781 365.398438 541.800781 274 541.800781 C 182.601562 541.800781 91.398438 541.800781 45.601562 541.800781 L 0 541.800781 Z M 0 482.398438 "/>
</g>
</svg>
