<?xml version="1.0" encoding="UTF-8"?>
<svg xmlns="http://www.w3.org/2000/svg" xmlns:xlink="http://www.w3.org/1999/xlink" width="1920px" height="540px" viewBox="0 0 1920 540" version="1.1">
<g id="surface1">
<rect x="0" y="0" width="1920" height="540" style="fill:rgb(0%,7.058824%,12.54902%);fill-opacity:1;stroke:none;"/>
<path style=" stroke:none;fill-rule:nonzero;fill:rgb(65.098039%,44.313725%,96.470588%);fill-opacity:1;" d="M 0 192.601562 L 29 207.898438 C 58 223.199219 116 253.800781 174.398438 256.140625 C 232.601562 258.660156 291.398438 232.738281 349.601562 235.261719 C 408 237.601562 466 268.199219 524 273.960938 C 582 279.539062 640 260.460938 698 255.238281 C 756 250.199219 814 259.199219 872.398438 270 C 930.601562 280.800781 989.398438 293.398438 1047.601562 275.398438 C 1106 257.398438 1164 208.800781 1222 192.601562 C 1280 176.398438 1338 192.601562 1396 217.800781 C 1454 243 1512 277.199219 1570.398438 270.539062 C 1628.601562 264.058594 1687.398438 216.539062 1745.601562 212.398438 C 1804 208.261719 1862 247.140625 1891 266.761719 L 1920 286.199219 L 1920 0 L 1891 0 C 1862 0 1804 0 1745.601562 0 C 1687.398438 0 1628.601562 0 1570.398438 0 C 1512 0 1454 0 1396 0 C 1338 0 1280 0 1222 0 C 1164 0 1106 0 1047.601562 0 C 989.398438 0 930.601562 0 872.398438 0 C 814 0 756 0 698 0 C 640 0 582 0 524 0 C 466 0 408 0 349.601562 0 C 291.398438 0 232.601562 0 174.398438 0 C 116 0 58 0 29 0 L 0 0 Z M 0 192.601562 "/>
<path style=" stroke:none;fill-rule:nonzero;fill:rgb(42.352941%,39.607843%,80.392157%);fill-opacity:1;" d="M 0 259.199219 L 29 235.800781 C 58 212.398438 116 165.601562 174.398438 166.5 C 232.601562 167.398438 291.398438 216 349.601562 225.539062 C 408 235.261719 466 205.738281 524 205.199219 C 582 204.660156 640 232.738281 698 234.898438 C 756 237.058594 814 212.941406 872.398438 202.5 C 930.601562 192.058594 989.398438 194.941406 1047.601562 186.839844 C 1106 178.738281 1164 159.660156 1222 161.101562 C 1280 162.539062 1338 184.859375 1396 180.539062 C 1454 176.398438 1512 145.800781 1570.398438 147.238281 C 1628.601562 148.859375 1687.398438 182.339844 1745.601562 193.140625 C 1804 203.941406 1862 192.058594 1891 185.941406 L 1920 180 L 1920 0 L 1891 0 C 1862 0 1804 0 1745.601562 0 C 1687.398438 0 1628.601562 0 1570.398438 0 C 1512 0 1454 0 1396 0 C 1338 0 1280 0 1222 0 C 1164 0 1106 0 1047.601562 0 C 989.398438 0 930.601562 0 872.398438 0 C 814 0 756 0 698 0 C 640 0 582 0 524 0 C 466 0 408 0 349.601562 0 C 291.398438 0 232.601562 0 174.398438 0 C 116 0 58 0 29 0 L 0 0 Z M 0 259.199219 "/>
<path style=" stroke:none;fill-rule:nonzero;fill:rgb(24.313725%,32.941176%,62.745098%);fill-opacity:1;" d="M 0 95.398438 L 29 102.058594 C 58 108.539062 116 121.859375 174.398438 126 C 232.601562 130.140625 291.398438 125.460938 349.601562 122.039062 C 408 118.800781 466 117 524 110.160156 C 582 103.140625 640 91.261719 698 95.941406 C 756 100.800781 814 122.398438 872.398438 141.300781 C 930.601562 160.199219 989.398438 176.398438 1047.601562 184.859375 C 1106 193.140625 1164 193.859375 1222 193.140625 C 1280 192.601562 1338 190.800781 1396 171.359375 C 1454 151.738281 1512 114.660156 1570.398438 110.339844 C 1628.601562 106.199219 1687.398438 135 1745.601562 140.398438 C 1804 145.800781 1862 127.800781 1891 118.800781 L 1920 109.800781 L 1920 0 L 1891 0 C 1862 0 1804 0 1745.601562 0 C 1687.398438 0 1628.601562 0 1570.398438 0 C 1512 0 1454 0 1396 0 C 1338 0 1280 0 1222 0 C 1164 0 1106 0 1047.601562 0 C 989.398438 0 930.601562 0 872.398438 0 C 814 0 756 0 698 0 C 640 0 582 0 524 0 C 466 0 408 0 349.601562 0 C 291.398438 0 232.601562 0 174.398438 0 C 116 0 58 0 29 0 L 0 0 Z M 0 95.398438 "/>
<path style=" stroke:none;fill-rule:nonzero;fill:rgb(12.54902%,25.098039%,43.921569%);fill-opacity:1;" d="M 0 70.199219 L 29 65.339844 C 58 60.660156 116 50.941406 174.398438 54 C 232.601562 57.058594 291.398438 72.539062 349.601562 74.160156 C 408 75.601562 466 63 524 54 C 582 45 640 39.601562 698 39.238281 C 756 39.058594 814 43.738281 872.398438 48.058594 C 930.601562 52.199219 989.398438 55.800781 1047.601562 58.140625 C 1106 60.660156 1164 61.738281 1222 67.859375 C 1280 73.800781 1338 84.601562 1396 78.300781 C 1454 72 1512 48.601562 1570.398438 50.398438 C 1628.601562 52.199219 1687.398438 79.199219 1745.601562 80.460938 C 1804 81.539062 1862 57.058594 1891 44.640625 L 1920 32.398438 L 1920 0 L 1891 0 C 1862 0 1804 0 1745.601562 0 C 1687.398438 0 1628.601562 0 1570.398438 0 C 1512 0 1454 0 1396 0 C 1338 0 1280 0 1222 0 C 1164 0 1106 0 1047.601562 0 C 989.398438 0 930.601562 0 872.398438 0 C 814 0 756 0 698 0 C 640 0 582 0 524 0 C 466 0 408 0 349.601562 0 C 291.398438 0 232.601562 0 174.398438 0 C 116 0 58 0 29 0 L 0 0 Z M 0 70.199219 "/>
</g>
</svg>
